# Blender 4.0.2
# www.blender.org
mtllib drone2 (1).mtl
o Cylinder
v 0.000000 -1.359016 -3.716056
v 0.000000 1.359016 -3.716056
v 1.858028 -1.359016 -3.218199
v 1.858028 1.359016 -3.218199
v 3.109890 -1.203250 -1.446617
v 3.109890 1.203250 -1.446617
v 3.497509 -1.203250 0.000000
v 3.497509 1.203250 0.000000
v -6.047942 2.387873 -2.722993
v -6.842752 0.986486 -2.733611
v -5.407146 2.049498 -2.386323
v -6.126438 0.608234 -2.357264
v -4.688485 1.766598 -2.446277
v -5.297801 0.282042 -2.426393
v -4.131021 1.621808 -2.830944
v -4.578874 0.095315 -2.922473
v -3.839671 1.623745 -3.383535
v -4.162294 0.098085 -3.712582
v -3.716056 -1.359016 0.000000
v -3.716056 1.359016 0.000000
v -3.218199 -1.359016 -1.858028
v -3.218199 1.359016 -1.858028
v -1.858028 -1.359016 -3.218199
v -1.858028 1.359016 -3.218199
v 1.473109 2.663145 -2.551500
v -0.000000 2.663145 -2.946218
v 2.551500 2.663145 -1.473109
v 2.946218 2.663145 0.000000
v -3.837637 1.772880 -4.062865
v -4.159682 0.289610 -4.585009
v -4.195658 2.058703 -4.689299
v -4.571738 0.618572 -5.305989
v -4.836453 2.397077 -5.025968
v -2.946218 2.663145 0.000000
v -2.551500 2.663145 -1.473109
v -1.473109 2.663145 -2.551500
v -0.000000 -2.663145 -2.946218
v 1.473109 -2.663145 -2.551500
v 2.551500 -2.663145 -1.473109
v 2.946218 -2.663145 0.000000
v -5.288053 0.996824 -5.682335
v -5.555115 2.679977 -4.966015
v -6.116690 1.323016 -5.613208
v -2.946218 -2.663145 0.000000
v -2.551500 -2.663145 -1.473109
v -1.473109 -2.663145 -2.551500
v -7.254808 1.315448 -3.454591
v -6.405962 2.673696 -3.349427
v -7.252196 1.506973 -4.327018
v -6.403929 2.822830 -4.028757
v -6.835616 1.509743 -5.117126
v -6.112578 2.824767 -4.581348
v -5.540993 2.028992 -2.043610
v -4.712355 1.702801 -2.112739
v -3.993429 1.516073 -2.608819
v -3.576849 1.518844 -3.398928
v -3.574237 1.710369 -4.271355
v -3.986293 2.039330 -4.992335
v -4.702607 2.417583 -5.368681
v -5.531244 2.743774 -5.299554
v -6.257308 2.407245 -2.419957
v -6.669363 2.736207 -3.140937
v -6.666751 2.927732 -4.013364
v -6.250171 2.930502 -4.803473
v 0.000000 -1.359016 3.716056
v 0.000000 1.359016 3.716056
v 1.858028 -1.359016 3.218199
v 1.858028 1.359016 3.218199
v 3.109890 -1.203250 1.446617
v 3.109890 1.203250 1.446617
v -6.047942 2.387873 2.722993
v -6.842752 0.986486 2.733611
v -5.407146 2.049498 2.386323
v -6.126438 0.608234 2.357264
v -4.688485 1.766598 2.446277
v -5.297801 0.282042 2.426393
v -4.131021 1.621808 2.830944
v -4.578874 0.095315 2.922473
v -3.839671 1.623745 3.383535
v -4.162294 0.098085 3.712582
v -3.218199 -1.359016 1.858028
v -3.218199 1.359016 1.858028
v -1.858028 -1.359016 3.218199
v -1.858028 1.359016 3.218199
v 1.473109 2.663145 2.551500
v -0.000000 2.663145 2.946218
v 2.551500 2.663145 1.473109
v -3.837637 1.772880 4.062865
v -4.159682 0.289610 4.585009
v -4.195658 2.058703 4.689299
v -4.571738 0.618572 5.305989
v -4.836453 2.397077 5.025968
v -2.551500 2.663145 1.473109
v -1.473109 2.663145 2.551500
v -0.000000 -2.663145 2.946218
v 1.473109 -2.663145 2.551500
v 2.551500 -2.663145 1.473109
v -5.288053 0.996824 5.682335
v -5.555115 2.679977 4.966015
v -6.116690 1.323016 5.613208
v -2.551500 -2.663145 1.473109
v -1.473109 -2.663145 2.551500
v -7.254808 1.315448 3.454591
v -6.405962 2.673696 3.349427
v -7.252196 1.506973 4.327018
v -6.403929 2.822830 4.028757
v -6.835616 1.509743 5.117126
v -6.112578 2.824767 4.581348
v -5.540993 2.028992 2.043610
v -4.712355 1.702801 2.112739
v -3.993429 1.516073 2.608819
v -3.576849 1.518844 3.398928
v -3.574237 1.710369 4.271355
v -3.986293 2.039330 4.992335
v -4.702607 2.417583 5.368681
v -5.531244 2.743774 5.299554
v -6.257308 2.407245 2.419957
v -6.669363 2.736207 3.140937
v -6.666751 2.927732 4.013364
v -6.250171 2.930502 4.803473
v 0.542897 3.050828 -0.940326
v 0.000000 3.050828 -1.085795
v 0.940326 3.050828 -0.542897
v 1.085795 3.050828 -0.000000
v -0.940326 3.050828 -0.542897
v -1.085795 3.050828 -0.000000
v -0.542897 3.050828 -0.940326
v 0.542897 3.050828 0.940326
v 0.000000 3.050828 1.085795
v 0.940326 3.050828 0.542897
v -0.940326 3.050828 0.542897
v -0.542897 3.050828 0.940326
v 0.353410 4.072396 -0.612124
v 0.000000 4.072396 -0.706819
v 0.612124 4.072396 -0.353410
v 0.706819 4.072396 0.000000
v -0.612124 4.072396 -0.353410
v -0.706819 4.072396 0.000000
v -0.353410 4.072396 -0.612124
v 0.353410 4.072396 0.612124
v 0.000000 4.072396 0.706819
v 0.612124 4.072396 0.353410
v -0.612124 4.072396 0.353410
v -0.353410 4.072396 0.612124
v 3.935230 3.050828 -0.000000
v 3.789761 3.050828 -0.542897
v 3.789761 3.050828 0.542897
v 3.556254 4.072396 0.000000
v 3.461558 4.072396 -0.353410
v 3.461558 4.072396 0.353410
v 7.144225 3.007516 0.000000
v 7.144225 3.007516 0.000000
v 7.144225 3.007516 0.000000
v 7.144225 3.007516 0.000000
v 7.144225 3.007516 0.000000
v 7.144225 3.007516 0.000000
v 3.218199 1.359016 -1.858028
v 3.218199 -1.359016 -1.858028
v 3.716056 -1.359016 0.000000
v 3.716056 1.359016 0.000000
v 3.218199 1.359016 1.858028
v 3.218199 -1.359016 1.858028
vn 0.2588 -0.0000 -0.9659
vn 0.7071 -0.0000 -0.7071
vn 0.9659 -0.0000 -0.2588
vn 0.9277 -0.3652 -0.0774
vn 0.8049 -0.2091 -0.5554
vn 0.4664 0.0031 -0.8846
vn 0.0029 0.2144 -0.9767
vn -0.9659 -0.0000 -0.2588
vn 0.6143 0.4953 -0.6143
vn 0.0960 0.9921 0.0806
vn -0.2588 -0.0000 -0.9659
vn -0.0000 -1.0000 -0.0000
vn -0.8391 0.4953 -0.2248
vn -0.2248 0.4953 -0.8391
vn 0.2248 0.4953 -0.8391
vn 0.8391 0.4953 -0.2248
vn -0.6143 0.4953 -0.6143
vn 0.0546 0.9775 0.2037
vn 0.1842 0.0483 -0.9817
vn 0.4613 -0.3683 0.8072
vn -0.2248 -0.4953 -0.8391
vn 0.2248 -0.4953 -0.8391
vn 0.8391 -0.4953 -0.2248
vn -0.6143 -0.4953 -0.6143
vn 0.6143 -0.4953 -0.6143
vn -0.8391 -0.4953 -0.2248
vn -0.0029 -0.2144 0.9767
vn -0.4664 -0.0031 0.8846
vn -0.8049 0.2091 0.5554
vn -0.9277 0.3652 0.0774
vn -0.8020 0.4235 -0.4213
vn -0.4613 0.3683 -0.8072
vn 0.3733 0.9059 0.2000
vn 0.8080 -0.4783 -0.3439
vn 0.8096 -0.5610 0.1726
vn 0.5475 -0.5559 0.6255
vn 0.1267 -0.4692 0.8739
vn -0.3380 -0.3079 0.8894
vn -0.7350 -0.0955 0.6713
vn -0.9577 0.1151 0.2637
vn -0.9376 0.2503 -0.2412
vn -0.6775 0.2405 -0.6951
vn -0.2782 0.1014 -0.9551
vn 0.1683 -0.1038 -0.9803
vn 0.5658 -0.3151 -0.7620
vn -0.6336 0.0310 0.7731
vn -0.4670 -0.7951 -0.3869
vn 0.2588 -0.0000 0.9659
vn 0.7071 -0.0000 0.7071
vn 0.9659 -0.0000 0.2588
vn 0.9277 -0.3652 0.0774
vn 0.8049 -0.2091 0.5554
vn 0.4664 0.0031 0.8846
vn 0.0029 0.2144 0.9767
vn -0.9659 -0.0000 0.2588
vn 0.6143 0.4953 0.6143
vn 0.0960 0.9921 -0.0806
vn -0.2588 -0.0000 0.9659
vn -0.8391 0.4953 0.2248
vn -0.2248 0.4953 0.8391
vn 0.2248 0.4953 0.8391
vn 0.8391 0.4953 0.2248
vn -0.6143 0.4953 0.6143
vn -0.1491 0.9775 -0.1491
vn 0.1842 0.0483 0.9817
vn 0.4613 -0.3683 -0.8072
vn -0.2248 -0.4953 0.8391
vn 0.2248 -0.4953 0.8391
vn 0.8391 -0.4953 0.2248
vn -0.6143 -0.4953 0.6143
vn 0.6143 -0.4953 0.6143
vn -0.8391 -0.4953 0.2248
vn -0.0029 -0.2144 -0.9767
vn -0.4664 -0.0031 -0.8846
vn -0.8049 0.2091 -0.5554
vn -0.9277 0.3652 -0.0774
vn -0.8020 0.4235 0.4213
vn -0.4613 0.3683 0.8072
vn 0.3733 0.9059 -0.2000
vn 0.8080 -0.4783 0.3439
vn 0.8096 -0.5610 -0.1726
vn 0.5475 -0.5559 -0.6255
vn 0.1267 -0.4692 -0.8739
vn -0.3380 -0.3079 -0.8894
vn -0.7350 -0.0955 -0.6713
vn -0.9577 0.1151 -0.2637
vn -0.9376 0.2503 0.2412
vn -0.6775 0.2405 0.6951
vn -0.2782 0.1014 0.9551
vn 0.1683 -0.1038 0.9803
vn 0.5658 -0.3151 0.7620
vn -0.6336 0.0310 -0.7731
vn -0.4670 -0.7951 0.3869
vn -0.2436 0.3373 0.9093
vn -0.2436 0.3373 -0.9093
vn 0.2037 0.9775 -0.0546
vn -0.2037 0.9775 0.0546
vn -0.0546 0.9775 -0.2037
vn 0.1491 0.9775 0.1491
vn -0.1491 0.9775 0.1491
vn 0.0546 0.9775 -0.2037
vn -0.2037 0.9775 -0.0546
vn 0.2037 0.9775 0.0546
vn -0.0546 0.9775 0.2037
vn 0.1491 0.9775 -0.1491
vn -0.0000 1.0000 -0.0000
vn -0.9093 0.3373 -0.2436
vn -0.9093 0.3373 0.2436
vn 0.2436 0.3373 -0.9093
vn 0.2436 0.3373 0.9093
vn -0.6657 0.3373 -0.6657
vn -0.6657 0.3373 0.6657
vn 0.6657 0.3373 -0.6657
vn 0.6657 0.3373 0.6657
vn -0.0135 -0.9999 0.0036
vn 0.2837 0.9559 -0.0760
vn -0.0000 0.1824 0.9832
vn -0.0000 0.1824 -0.9832
vn 0.2837 0.9559 0.0760
vn -0.0135 -0.9999 -0.0036
vn 0.1584 0.2290 0.9604
vn 0.1584 0.2290 -0.9604
vn 0.9670 -0.0000 0.2546
vn 0.5735 0.8047 -0.1537
vn 0.5735 -0.8047 -0.1537
vn 0.9670 -0.0000 -0.2546
vn 0.5735 0.8047 0.1537
vn 0.5735 -0.8047 0.1537
vt 1.000000 0.500000
vt 1.000000 1.000000
vt 0.916667 1.000000
vt 0.916667 0.500000
vt 0.833333 1.000000
vt 0.833333 0.500000
vt 0.814881 0.528654
vt 0.814881 0.971346
vt 0.750000 0.971346
vt 0.750000 0.528654
vt 0.750000 1.000000
vt 0.750000 0.500000
vt 0.666667 1.000000
vt 0.666667 0.500000
vt 0.250000 0.500000
vt 0.250000 1.000000
vt 0.166667 1.000000
vt 0.166667 0.500000
vt 0.370000 0.042154
vt 0.083333 1.000000
vt 0.083333 0.500000
vt 0.000000 1.000000
vt 0.000000 0.500000
vt 0.583333 0.500000
vt 0.583333 1.000000
vt 0.500000 1.000000
vt 0.500000 0.500000
vt 0.416667 1.000000
vt 0.416667 0.500000
vt 0.333333 1.000000
vt 0.333333 0.500000
vt 0.265536 0.054727
vt 0.161462 0.082614
vt 0.130000 0.042154
vt 0.250000 0.010000
vt 0.358585 0.079660
vt 0.420023 0.141098
vt 0.457846 0.130000
vt 0.445060 0.234538
vt 0.490000 0.250000
vt 0.417123 0.338802
vt 0.457846 0.370000
vt 0.338538 0.417386
vt 0.370000 0.457846
vt 0.234464 0.445273
vt 0.250000 0.490000
vt 0.082877 0.161198
vt 0.042154 0.130000
vt 0.054940 0.265462
vt 0.010000 0.250000
vt 0.079977 0.358902
vt 0.042154 0.370000
vt 0.141415 0.420341
vt 0.130000 0.457846
vt 0.000000 0.000000
vt 0.814881 0.528654
vt 0.814881 0.971346
s 0
f 1/1/1 2/2/1 4/3/1 3/4/1
f 3/4/2 4/3/2 157/5/2 158/6/2
f 5/7/3 6/8/3 8/9/3 7/10/3
f 30/1/4 57/2/4 56/3/4 18/4/4
f 32/4/5 58/3/5 57/5/5 30/6/5
f 41/6/6 59/5/6 58/11/6 32/12/6
f 43/12/7 60/11/7 59/13/7 41/14/7
f 19/15/8 20/16/8 22/17/8 21/18/8
f 157/5/9 4/3/9 25/3/9 27/5/9
f 55/19/10 22/17/10 24/20/10 56/3/10
f 23/21/11 24/20/11 2/22/11 1/23/11
f 37/23/12 38/4/12 39/6/12 40/12/12 44/15/12 45/18/12 46/21/12
f 22/17/13 20/16/13 34/16/13 35/17/13
f 2/22/14 24/20/14 36/20/14 26/22/14
f 4/3/15 2/2/15 26/2/15 25/3/15
f 160/11/16 157/5/16 27/5/16 28/11/16
f 24/20/17 22/17/17 35/17/17 36/20/17
f 86/2/18 85/3/18 128/3/18 129/2/18
f 23/21/19 18/4/19 56/3/19 24/20/19
f 16/24/20 55/25/20 54/26/20 14/27/20
f 23/21/21 1/23/21 37/23/21 46/21/21
f 1/1/22 3/4/22 38/4/22 37/1/22
f 158/6/23 159/12/23 40/12/23 39/6/23
f 21/18/24 23/21/24 46/21/24 45/18/24
f 3/4/25 158/6/25 39/6/25 38/4/25
f 19/15/26 21/18/26 45/18/26 44/15/26
f 14/27/27 54/26/27 53/28/27 12/29/27
f 12/29/28 53/28/28 61/30/28 10/31/28
f 10/31/29 61/30/29 62/16/29 47/15/29
f 47/15/30 62/16/30 63/17/30 49/18/30
f 49/18/31 63/17/31 64/20/31 51/21/31
f 51/21/32 64/20/32 60/22/32 43/23/32
f 13/32/33 11/33/33 53/34/33 54/35/33
f 15/36/33 13/32/33 54/35/33 55/19/33
f 17/37/33 15/36/33 55/19/33 56/38/33
f 29/39/33 17/37/33 56/38/33 57/40/33
f 31/41/33 29/39/33 57/40/33 58/42/33
f 33/43/33 31/41/33 58/42/33 59/44/33
f 42/45/33 33/43/33 59/44/33 60/46/33
f 11/33/33 9/47/33 61/48/33 53/34/33
f 9/47/33 48/49/33 62/50/33 61/48/33
f 48/49/33 50/51/33 63/52/33 62/50/33
f 50/51/33 52/53/33 64/54/33 63/52/33
f 52/53/33 42/45/33 60/46/33 64/54/33
f 47/55/34 49/55/34 48/55/34 9/55/34
f 49/55/35 51/55/35 50/55/35 48/55/35
f 51/55/36 43/55/36 52/55/36 50/55/36
f 43/55/37 41/55/37 42/55/37 52/55/37
f 41/55/38 32/55/38 33/55/38 42/55/38
f 32/55/39 30/55/39 31/55/39 33/55/39
f 30/55/40 18/55/40 29/55/40 31/55/40
f 18/55/41 16/55/41 17/55/41 29/55/41
f 16/55/42 14/55/42 15/55/42 17/55/42
f 14/55/43 12/55/43 13/55/43 15/55/43
f 12/55/44 10/55/44 11/55/44 13/55/44
f 10/55/45 47/55/45 9/55/45 11/55/45
f 21/18/46 22/17/46 55/25/46 16/24/46
f 18/4/47 23/21/47 21/18/47 16/24/47
f 65/1/48 67/4/48 68/3/48 66/2/48
f 67/4/49 162/6/49 161/5/49 68/3/49
f 69/56/50 7/10/50 8/9/50 70/57/50
f 89/1/51 80/4/51 112/3/51 113/2/51
f 91/4/52 89/6/52 113/5/52 114/3/52
f 98/6/53 91/12/53 114/11/53 115/5/53
f 100/12/54 98/14/54 115/13/54 116/11/54
f 19/15/55 81/18/55 82/17/55 20/16/55
f 161/5/56 87/5/56 85/3/56 68/3/56
f 111/19/57 112/3/57 84/20/57 82/17/57
f 83/21/58 65/23/58 66/22/58 84/20/58
f 95/23/12 102/21/12 101/18/12 44/15/12 40/12/12 97/6/12 96/4/12
f 82/17/59 93/17/59 34/16/59 20/16/59
f 66/22/60 86/22/60 94/20/60 84/20/60
f 68/3/61 85/3/61 86/2/61 66/2/61
f 160/11/62 28/11/62 87/5/62 161/5/62
f 84/20/63 94/20/63 93/17/63 82/17/63
f 36/20/64 35/17/64 125/17/64 127/20/64
f 83/21/65 84/20/65 112/3/65 80/4/65
f 78/24/66 76/27/66 110/26/66 111/25/66
f 83/21/67 102/21/67 95/23/67 65/23/67
f 65/1/68 95/1/68 96/4/68 67/4/68
f 162/6/69 97/6/69 40/12/69 159/12/69
f 81/18/70 101/18/70 102/21/70 83/21/70
f 67/4/71 96/4/71 97/6/71 162/6/71
f 19/15/72 44/15/72 101/18/72 81/18/72
f 76/27/73 74/29/73 109/28/73 110/26/73
f 74/29/74 72/31/74 117/30/74 109/28/74
f 72/31/75 103/15/75 118/16/75 117/30/75
f 103/15/76 105/18/76 119/17/76 118/16/76
f 105/18/77 107/21/77 120/20/77 119/17/77
f 107/21/78 100/23/78 116/22/78 120/20/78
f 75/32/79 110/35/79 109/34/79 73/33/79
f 77/36/79 111/19/79 110/35/79 75/32/79
f 79/37/79 112/38/79 111/19/79 77/36/79
f 88/39/79 113/40/79 112/38/79 79/37/79
f 90/41/79 114/42/79 113/40/79 88/39/79
f 92/43/79 115/44/79 114/42/79 90/41/79
f 99/45/79 116/46/79 115/44/79 92/43/79
f 73/33/79 109/34/79 117/48/79 71/47/79
f 71/47/79 117/48/79 118/50/79 104/49/79
f 104/49/79 118/50/79 119/52/79 106/51/79
f 106/51/79 119/52/79 120/54/79 108/53/79
f 108/53/79 120/54/79 116/46/79 99/45/79
f 103/55/80 71/55/80 104/55/80 105/55/80
f 105/55/81 104/55/81 106/55/81 107/55/81
f 107/55/82 106/55/82 108/55/82 100/55/82
f 100/55/83 108/55/83 99/55/83 98/55/83
f 98/55/84 99/55/84 92/55/84 91/55/84
f 91/55/85 92/55/85 90/55/85 89/55/85
f 89/55/86 90/55/86 88/55/86 80/55/86
f 80/55/87 88/55/87 79/55/87 78/55/87
f 78/55/88 79/55/88 77/55/88 76/55/88
f 76/55/89 77/55/89 75/55/89 74/55/89
f 74/55/90 75/55/90 73/55/90 72/55/90
f 72/55/91 73/55/91 71/55/91 103/55/91
f 81/18/92 78/24/92 111/25/92 82/17/92
f 80/4/93 78/24/93 81/18/93 83/21/93
f 132/20/94 129/22/94 141/22/94 144/20/94
f 122/22/95 127/20/95 139/20/95 134/22/95
f 28/11/96 27/5/96 123/5/96 124/11/96
f 34/16/97 93/17/97 131/17/97 126/16/97
f 26/22/98 36/20/98 127/20/98 122/22/98
f 85/3/99 87/5/99 130/5/99 128/3/99
f 93/17/100 94/20/100 132/20/100 131/17/100
f 25/3/101 26/2/101 122/2/101 121/3/101
f 35/17/102 34/16/102 126/16/102 125/17/102
f 87/5/103 28/11/103 124/11/103 130/5/103
f 94/20/104 86/22/104 129/22/104 132/20/104
f 27/5/105 25/3/105 121/3/105 123/5/105
f 134/22/106 139/20/106 137/17/106 138/16/106 136/11/106 135/5/106 133/3/106
f 141/22/106 140/3/106 142/5/106 136/11/106 138/16/106 143/17/106 144/20/106
f 124/11/12 123/5/12 146/5/12 145/11/12
f 135/5/106 136/11/106 148/11/106 149/5/106
f 125/17/107 126/16/107 138/16/107 137/17/107
f 126/16/108 131/17/108 143/17/108 138/16/108
f 121/3/109 122/2/109 134/2/109 133/3/109
f 129/2/110 128/3/110 140/3/110 141/2/110
f 127/20/111 125/17/111 137/17/111 139/20/111
f 131/17/112 132/20/112 144/20/112 143/17/112
f 123/5/113 121/3/113 133/3/113 135/5/113
f 128/3/114 130/5/114 142/5/114 140/3/114
f 145/11/115 146/5/115 152/5/115 151/11/115
f 149/5/116 148/11/116 154/11/116 155/5/116
f 136/11/106 142/5/106 150/5/106 148/11/106
f 142/5/117 130/5/117 147/5/117 150/5/117
f 130/5/12 124/11/12 145/11/12 147/5/12
f 123/5/118 135/5/118 149/5/118 146/5/118
f 151/11/106 152/5/106 155/5/106 154/11/106
f 153/5/106 151/11/106 154/11/106 156/5/106
f 148/11/119 150/5/119 156/5/119 154/11/119
f 147/5/120 145/11/120 151/11/120 153/5/120
f 150/5/121 147/5/121 153/5/121 156/5/121
f 146/5/122 149/5/122 155/5/122 152/5/122
f 6/8/123 5/7/123 158/6/123 157/5/123
f 5/7/124 7/10/124 159/12/124 158/6/124
f 8/9/125 6/8/125 157/5/125 160/11/125
f 69/56/126 70/57/126 161/5/126 162/6/126
f 7/10/127 69/56/127 162/6/127 159/12/127
f 70/57/128 8/9/128 160/11/128 161/5/128
